<svg xmlns="http://www.w3.org/2000/svg" width="1024" height="1024" viewBox="0 0 1024 1024" role="img" aria-labelledby="title desc">
  <title id="title">Industrial gear infinity logo - white flat transparent</title>
  <desc id="desc">Flat white infinity-loop ribbon enclosing a large left gear and smaller right gear on a transparent background.</desc>
  <g id="logo-mark" transform="translate(0,1024) scale(0.1,-0.1)" fill="#FFFFFF" stroke="none">
    <g id="left-gear"><path d="M3376 7400 c-38 -5 -72 -12 -76 -17 -4 -4 -26 -103 -50 -218 l-42 -210 -165 -54 -165 -53 -112 118 c-62 66 -129 138 -150 162 -21 23 -41 42 -45 42 -4 0 -51 -25 -106 -57 -81 -45 -201 -129 -301 -209 -22 -18 -18 -39 42 -204 30 -85 61 -175 69 -199 l14 -43 -66 -72 c-36 -39 -74 -79 -83 -89 -16 -18 -24 -16 -215 32 -109 28 -202 51 -207 51 -22 0 -196 -311 -213 -381 -6 -22 1 -32 47 -70 86 -71 268 -230 268 -235 0 -26 -56 -233 -65 -243 -8 -8 -100 -33 -206 -57 -106 -24 -196 -49 -200 -56 -23 -37 -24 -407 -1 -430 10 -10 198 -57 315 -78 37 -7 76 -20 86 -29 12 -10 29 -58 46 -131 l27 -115 -63 -57 c-35 -32 -103 -91 -151 -131 -47 -39 -92 -82 -98 -94 -11 -18 -2 -41 70 -181 45 -89 95 -176 110 -194 l28 -33 149 39 c81 21 173 45 203 51 l55 13 102 -105 101 -104 -10 -37 c-40 -154 -72 -265 -90 -309 -17 -45 -18 -54 -6 -67 54 -53 370 -221 405 -214 9 2 70 64 135 138 66 74 125 136 133 138 7 2 78 -15 157 -37 78 -23 157 -41 175 -41 88 0 403 139 583 258 241 158 614 488 717 633 l31 45 -94 53 -94 53 -81 -75 c-140 -131 -314 -231 -459 -265 -80 -18 -72 1 -90 -217 -14 -164 -16 -171 -37 -180 -48 -20 -307 -17 -340 3 -7 4 -16 61 -23 137 -7 72 -15 155 -18 185 l-7 55 -80 20 c-161 41 -349 155 -466 283 -31 33 -59 58 -62 55 -3 -3 -81 -41 -173 -84 l-167 -80 -23 22 c-32 30 -107 160 -140 239 -19 46 -22 65 -14 75 6 8 59 46 118 86 59 40 123 84 142 98 l36 25 -18 56 c-61 184 -63 431 -4 602 l24 67 -22 20 c-18 17 -197 146 -266 192 -23 15 -24 19 -13 49 21 55 115 219 149 258 l32 37 169 -83 170 -83 62 64 c121 127 316 241 482 284 l67 17 6 70 c22 248 28 286 50 301 31 22 318 22 337 -1 7 -9 18 -76 26 -167 20 -212 10 -191 103 -221 174 -56 330 -150 455 -273 l77 -75 167 81 c92 44 171 81 174 81 10 0 109 -155 146 -227 50 -101 52 -98 -130 -217 -64 -42 -122 -83 -128 -90 -10 -11 -8 -30 8 -83 31 -108 41 -179 41 -302 0 -111 -21 -240 -49 -315 -15 -37 -2 -52 99 -117 l75 -48 66 132 c127 257 226 436 374 677 76 124 74 118 59 175 -7 28 -13 59 -13 70 0 13 36 51 106 110 155 131 203 176 203 190 0 44 -148 331 -192 373 l-23 21 -170 -43 c-256 -64 -229 -63 -278 -10 -23 26 -61 67 -85 93 -32 35 -41 52 -38 71 3 14 30 105 61 204 31 98 55 190 53 205 -7 55 -360 288 -401 264 -8 -4 -45 -44 -83 -87 -122 -141 -187 -211 -206 -220 -12 -6 -47 2 -115 27 -54 19 -125 44 -158 54 -68 21 -55 -9 -119 267 -41 178 -42 180 -71 188 -46 12 -292 18 -369 8z"/></g>
    <g id="right-gear"><path d="M7608 6200 c-42 -3 -79 -8 -83 -12 -4 -3 -19 -70 -35 -148 -15 -77 -31 -144 -34 -148 -4 -4 -43 -16 -87 -28 l-79 -22 -58 62 c-32 33 -79 83 -104 110 l-46 50 -39 -12 c-21 -6 -84 -40 -138 -75 -117 -73 -112 -54 -53 -236 l40 -123 -58 -59 c-32 -33 -64 -59 -72 -59 -13 0 -217 63 -259 80 -19 8 -27 4 -51 -26 -49 -60 -132 -206 -132 -234 0 -21 22 -46 103 -119 56 -51 106 -99 110 -107 7 -13 -16 -124 -33 -153 -5 -9 -66 -28 -151 -48 -79 -18 -146 -38 -150 -44 -12 -21 -19 -139 -13 -220 8 -95 -5 -85 173 -129 68 -16 126 -31 128 -33 9 -9 50 -163 46 -172 -3 -5 -52 -52 -109 -104 -57 -52 -104 -100 -104 -107 0 -21 98 -208 128 -244 l28 -33 149 47 148 48 60 -61 61 -60 -44 -141 -44 -141 29 -28 c32 -31 196 -128 232 -137 16 -4 30 4 60 37 102 115 159 174 170 177 14 4 143 -36 155 -47 4 -4 20 -71 36 -150 22 -109 33 -146 47 -153 18 -11 300 -6 311 4 3 3 18 72 34 153 17 82 31 149 32 151 6 4 141 44 152 44 7 0 58 -52 115 -115 l103 -114 61 30 c83 42 217 130 217 144 0 5 -18 66 -40 135 -22 69 -40 132 -40 140 0 9 27 42 60 75 l60 59 144 -48 c79 -27 149 -45 155 -42 13 8 101 154 133 220 l23 49 -114 107 -113 107 16 59 c20 71 37 114 44 114 24 0 279 74 284 83 9 14 10 252 2 284 -5 19 -24 26 -143 54 -75 17 -143 35 -152 40 -9 4 -24 41 -34 85 l-20 77 115 108 114 108 -24 53 c-32 70 -130 218 -144 218 -6 0 -63 -16 -126 -36 -170 -53 -156 -54 -222 13 l-57 58 40 143 c35 121 39 145 27 159 -19 23 -144 102 -205 129 l-51 23 -110 -114 -110 -114 -78 25 c-43 14 -80 27 -82 29 -2 2 -17 61 -32 132 -35 156 -37 162 -64 168 -37 8 -129 10 -208 5z m192 -531 c4 -6 11 -43 14 -83 15 -162 11 -153 75 -172 87 -25 200 -88 266 -150 33 -30 65 -60 72 -66 9 -7 41 5 113 42 56 28 108 50 117 48 15 -3 123 -172 123 -194 0 -10 -51 -48 -156 -112 l-51 -32 20 -58 c31 -91 35 -239 8 -335 -11 -42 -21 -84 -21 -91 0 -8 45 -45 100 -82 55 -37 100 -71 100 -75 0 -38 -102 -209 -125 -209 -8 0 -61 25 -118 55 l-104 54 -34 -35 c-74 -78 -207 -158 -311 -188 l-56 -17 -5 -47 c-4 -26 -9 -76 -13 -112 -4 -36 -11 -71 -17 -77 -14 -19 -211 -18 -226 1 -6 7 -16 62 -21 121 -6 60 -13 112 -16 117 -3 4 -14 8 -25 8 -65 0 -248 102 -324 179 -21 23 -46 41 -54 41 -7 0 -61 -24 -118 -52 l-104 -53 -29 34 c-26 30 -100 160 -100 174 0 3 45 37 100 77 55 40 102 76 105 80 3 5 -4 44 -16 87 -28 102 -28 231 0 328 11 38 17 73 15 77 -3 4 -48 36 -100 69 -51 34 -94 68 -94 75 0 16 73 149 100 182 l19 23 110 -57 110 -57 63 58 c35 32 86 72 113 89 62 40 166 86 193 86 31 0 39 19 46 115 10 133 13 143 44 149 49 8 205 -2 212 -15z"/></g>
    <g id="infinity-loop"><path d="M3330 8410 c-224 -21 -492 -71 -665 -127 -312 -99 -713 -305 -954 -491 -434 -334 -754 -717 -991 -1187 -181 -359 -295 -732 -346 -1140 -22 -169 -25 -552 -5 -725 17 -159 73 -429 122 -590 90 -300 263 -663 418 -880 25 -36 59 -84 75 -108 53 -78 231 -285 331 -385 219 -220 440 -390 695 -537 407 -235 843 -368 1340 -410 255 -22 649 12 890 77 322 86 515 161 762 297 295 162 479 299 726 541 118 115 295 318 347 398 l18 28 76 -74 c208 -203 538 -405 811 -497 289 -97 622 -138 888 -109 269 29 463 81 694 184 394 177 723 461 967 834 207 316 332 707 357 1116 19 320 -74 752 -227 1058 -221 440 -616 829 -1054 1036 -155 74 -276 113 -482 157 -164 35 -519 45 -693 20 -270 -40 -486 -110 -735 -237 -255 -129 -462 -286 -691 -521 -304 -313 -535 -646 -849 -1228 -307 -569 -472 -822 -704 -1079 -81 -89 -278 -262 -401 -353 -73 -53 -186 -128 -194 -128 -2 0 -37 -19 -78 -42 -174 -99 -443 -200 -622 -233 -235 -44 -390 -53 -564 -35 -266 29 -474 93 -627 194 -160 105 -402 413 -551 701 -107 206 -190 439 -233 652 -74 367 -66 818 20 1141 52 197 170 501 237 612 12 19 31 53 43 75 12 22 52 85 89 141 254 377 578 659 993 863 274 135 612 218 932 228 587 20 1198 -209 1635 -613 227 -209 381 -415 546 -729 36 -69 67 -125 69 -125 1 0 26 32 55 71 89 120 293 306 458 418 34 24 62 48 62 55 0 59 -264 447 -430 630 -143 160 -354 354 -485 448 -408 291 -737 440 -1192 543 -249 56 -655 86 -883 65z m4645 -2045 c487 -78 957 -426 1194 -885 106 -205 149 -336 176 -543 58 -446 -51 -881 -307 -1222 -245 -326 -550 -543 -913 -649 -169 -49 -249 -60 -430 -60 -416 -2 -772 133 -1101 415 -159 137 -305 318 -404 501 -84 156 -161 419 -178 608 l-7 85 -38 -77 c-21 -43 -56 -104 -77 -137 -52 -80 -65 -107 -99 -199 -119 -322 -364 -689 -627 -941 -200 -191 -394 -325 -649 -447 -345 -165 -698 -236 -1066 -215 -158 10 -347 39 -388 61 -7 4 36 10 95 14 454 28 874 180 1299 467 350 237 618 497 936 909 111 143 365 581 594 1020 202 388 279 526 343 611 226 302 524 520 855 628 109 35 245 63 362 75 72 7 338 -5 430 -19z"/></g>
  </g>
</svg>
